<svg width="1600" height="600" xmlns="http://www.w3.org/2000/svg">
 <title>set</title>

 <g>
  <title>Layer 1</title>
  <circle r="200" cy="300" cx="800" stroke-width="80" fill="none" stroke="#00c0ff" id="circle_0"/>
  <line x1="1000" y1="100" x2="600" y2="500" stroke-width="80" fill="none" stroke="#00c0ff" id="line_0"/>
  <path transform="rotate(-180 335.5 288.935)" id="svg_2" d="m200.65718,344.14738l0,-121.723l-50.65718,0l0,-86.37231l50.65718,0l0,-106.05207l110.42535,0l0.72888,106.05207l209.18863,0l0,76.53242l-140.30944,335.2849l-98.03439,-36.07957l119.53636,-289.36545l-90.74559,0l-13.48428,121.723l-97.30551,0l-0.00001,0.00001z" opacity="undefined" stroke="null" fill="#00cfff"/>
  <path transform="rotate(-180 1255.5 288.935)" id="svg_3" d="m1121,344.14738l-0.34282,-121.723l-50.65718,0l0,-86.37231l50.65718,0l0,-106.05207l110.42535,0l0.72888,106.05207l209.18863,0l0,76.53242l-140.30944,335.2849l-98.03439,-36.07957l119.53636,-289.36545l-90.74559,0l-13.48428,121.723l-97.30551,0l0.34281,0.00001z" opacity="undefined" stroke="null" fill="#00cfff"/>
 </g>
</svg>